<?xml version="1.0" encoding="UTF-8"?>
<svg width="130px" height="40px" viewBox="0 0 130 40" version="1.1" xmlns="http://www.w3.org/2000/svg" xmlns:xlink="http://www.w3.org/1999/xlink">
    <!-- Generator: Sketch 52.3 (67297) - http://www.bohemiancoding.com/sketch -->
    <title>Group 4</title>
    <desc>Created with Sketch.</desc>
    <g id="Page-2" stroke="none" stroke-width="1" fill="none" fill-rule="evenodd">
        <g id="Fundraising-:desktop-:subscribed" transform="translate(-1153.000000, -38.000000)">
            <g id="Group-9" transform="translate(1019.000000, 38.000000)">
                <g id="Group-4" transform="translate(134.000000, 0.000000)">
                    <rect id="Rectangle" fill="#DDE4EA" fill-rule="nonzero" x="0" y="0" width="130" height="40" rx="4"></rect>
                    <path d="M11.4235453,15.4500443 C11.8106432,15.4500443 12.1425126,15.5882401 12.4189458,15.8646316 C12.6953789,16.1410231 12.8335747,16.4726431 12.8335747,16.8597825 L12.8335747,22.8032402 C12.8335747,23.200028 12.6974167,23.5360146 12.4258493,23.8124061 C12.1537413,24.0888393 11.8195429,24.227035 11.4235453,24.227035 C11.0272566,24.227035 10.6910204,24.0887977 10.4146289,23.8124061 C10.1381958,23.535973 10,23.200028 10,22.8032402 L10,16.8597825 C10,16.4726847 10.1382374,16.1410231 10.4146289,15.8646316 C10.6910204,15.5882401 11.0272566,15.4500443 11.4235453,15.4500443 Z M23.2023839,10.1145981 C24.188136,10.6220922 24.9761389,11.3288744 25.5658933,12.2364833 C26.1555647,13.1447992 26.4505875,14.1372053 26.4505875,15.2153236 L13.665462,15.2153236 C13.665462,14.1369558 13.9604432,13.1445912 14.5501561,12.2364833 C15.139869,11.3288744 15.9324465,10.6220922 16.9275974,10.1145981 L15.9461704,8.30420444 C15.8815016,8.18434883 15.9044164,8.09273123 16.0151228,8.0278129 C16.1347288,7.97233498 16.2268455,8.00032347 16.2915143,8.11053074 L17.2866652,9.9353969 C18.1619605,9.54829904 19.0881591,9.35433423 20.0649699,9.35433423 C21.0415727,9.35433423 21.9676881,9.54825745 22.8433161,9.9353969 L23.8384255,8.11053074 C23.9028031,8.00032347 23.9949198,7.97208545 24.114817,8.0278129 C24.2252738,8.09244012 24.2481886,8.18434883 24.1837693,8.30420444 L23.2023839,10.1145981 Z M17.5284558,12.747845 C17.6340885,12.6419629 17.6872375,12.5154532 17.6875286,12.3678587 C17.6875286,12.2205136 17.634338,12.0942535 17.5284558,11.9878723 C17.4223241,11.8819901 17.295565,11.829049 17.1482199,11.829049 C17.0008749,11.829049 16.876403,11.8819901 16.7750955,11.9878723 C16.673788,12.094004 16.6231342,12.2205136 16.6231342,12.3678587 C16.6231342,12.5157028 16.673788,12.6419629 16.7750955,12.747845 C16.876403,12.8542262 17.0005838,12.9071673 17.1482199,12.9071673 C17.295565,12.9071673 17.4223241,12.8542262 17.5284558,12.747845 Z M23.3543036,12.747845 C23.4556527,12.6419629 23.5062649,12.5154532 23.5062649,12.3678587 C23.5062649,12.2205136 23.4556943,12.0942535 23.3543036,11.9878723 C23.2527466,11.8819901 23.1285658,11.829049 22.9812208,11.829049 C22.833543,11.829049 22.7068255,11.8819901 22.6009017,11.9878723 C22.4948116,12.094004 22.4418705,12.2205136 22.4418705,12.3678587 C22.4418705,12.5157028 22.4948116,12.6419629 22.6009017,12.747845 C22.7068255,12.8542262 22.833543,12.9071673 22.9812208,12.9071673 C23.1283163,12.9071673 23.2527882,12.8542262 23.3543036,12.747845 Z M13.7203577,24.9180139 L13.7203577,15.7124208 L26.4083344,15.7124208 L26.4083344,24.918305 C26.4083344,25.3425406 26.2609062,25.7016916 25.9662161,25.9964233 C25.6709438,26.291155 25.316409,26.4385416 24.9018217,26.4385416 L23.8651247,26.4385416 L23.8651247,29.5762052 C23.8651247,29.9724939 23.7269706,30.308938 23.4505374,30.5853711 C23.1741043,30.8618042 22.8376602,31 22.441621,31 C22.0452907,31 21.7091377,30.8618042 21.4327046,30.5853711 C21.1562714,30.308938 21.0181173,29.9724523 21.0181173,29.5762052 L21.0181173,26.4385416 L19.1107412,26.4385416 L19.1107412,29.5762052 C19.1107412,29.9724939 18.9725454,30.308938 18.6961123,30.5853711 C18.4196792,30.8618042 18.0832351,31 17.6871959,31 C17.3003476,31 16.9684365,30.8618042 16.692045,30.5853711 C16.4156534,30.308938 16.2774577,29.9724523 16.2774577,29.5762052 L16.2634426,26.4382505 L15.2405527,26.4382505 C14.8165666,26.4382505 14.4574157,26.2909054 14.1624345,25.9961737 C13.8677028,25.701442 13.7203577,25.3422911 13.7203577,24.9180139 Z M28.6997798,15.4500443 C29.095819,15.4500443 29.4322631,15.5862023 29.7086962,15.8577696 C29.9851294,16.1298361 30.1232835,16.4639928 30.1232835,16.8597825 L30.1232835,22.8032402 C30.1232835,23.200028 29.9851294,23.535973 29.7086962,23.8124061 C29.4322631,24.0888393 29.095819,24.227035 28.6997798,24.227035 C28.3128899,24.227035 27.9810204,24.0888393 27.7045873,23.8124061 C27.4281542,23.535973 27.29,23.200028 27.29,22.8032402 L27.29,16.8597825 C27.29,16.4640344 27.4281958,16.1298361 27.7045873,15.8577696 C27.9810204,15.5862023 28.3126404,15.4500443 28.6997798,15.4500443 Z" id="Combined-Shape" fill="#FFFFFF"></path>
                    <path d="M44.54,13.048 C44.1199979,13.048 43.7410017,12.9550009 43.403,12.769 C43.0649983,12.5829991 42.800001,12.3270016 42.608,12.001 C42.415999,11.6749984 42.32,11.308002 42.32,10.9 C42.32,10.491998 42.415999,10.1250016 42.608,9.799 C42.800001,9.47299837 43.0659983,9.21700093 43.406,9.031 C43.7460017,8.84499907 44.1259979,8.752 44.546,8.752 C44.8740016,8.752 45.1739986,8.80699945 45.446,8.917 C45.7180014,9.02700055 45.949999,9.18999892 46.142,9.406 L45.752,9.784 C45.4359984,9.45199834 45.0420024,9.286 44.57,9.286 C44.2579984,9.286 43.9760013,9.3559993 43.724,9.496 C43.4719987,9.6360007 43.2750007,9.82899877 43.133,10.075 C42.9909993,10.3210012 42.92,10.5959985 42.92,10.9 C42.92,11.2040015 42.9909993,11.4789988 43.133,11.725 C43.2750007,11.9710012 43.4719987,12.1639993 43.724,12.304 C43.9760013,12.4440007 44.2579984,12.514 44.57,12.514 C45.0380023,12.514 45.4319984,12.3460017 45.752,12.01 L46.142,12.388 C45.949999,12.6040011 45.7170014,12.7679994 45.443,12.88 C45.1689986,12.9920006 44.8680016,13.048 44.54,13.048 Z M48.896,13.048 C48.4719979,13.048 48.0900017,12.9550009 47.75,12.769 C47.4099983,12.5829991 47.143001,12.3260016 46.949,11.998 C46.754999,11.6699984 46.658,11.304002 46.658,10.9 C46.658,10.495998 46.754999,10.1300016 46.949,9.802 C47.143001,9.47399836 47.4099983,9.21700093 47.75,9.031 C48.0900017,8.84499907 48.4719979,8.752 48.896,8.752 C49.3160021,8.752 49.6959983,8.84499907 50.036,9.031 C50.3760017,9.21700093 50.641999,9.47299837 50.834,9.799 C51.026001,10.1250016 51.122,10.491998 51.122,10.9 C51.122,11.308002 51.026001,11.6749984 50.834,12.001 C50.641999,12.3270016 50.3760017,12.5829991 50.036,12.769 C49.6959983,12.9550009 49.3160021,13.048 48.896,13.048 Z M48.896,12.514 C49.2040015,12.514 49.4809988,12.4440007 49.727,12.304 C49.9730012,12.1639993 50.1669993,11.9710012 50.309,11.725 C50.4510007,11.4789988 50.522,11.2040015 50.522,10.9 C50.522,10.5959985 50.4510007,10.3210012 50.309,10.075 C50.1669993,9.82899877 49.9730012,9.6360007 49.727,9.496 C49.4809988,9.3559993 49.2040015,9.286 48.896,9.286 C48.5879985,9.286 48.3090012,9.3559993 48.059,9.496 C47.8089987,9.6360007 47.6130007,9.82899877 47.471,10.075 C47.3289993,10.3210012 47.258,10.5959985 47.258,10.9 C47.258,11.2040015 47.3289993,11.4789988 47.471,11.725 C47.6130007,11.9710012 47.8089987,12.1639993 48.059,12.304 C48.3090012,12.4440007 48.5879985,12.514 48.896,12.514 Z M55.934,13 L55.928,9.94 L54.41,12.49 L54.134,12.49 L52.616,9.958 L52.616,13 L52.04,13 L52.04,8.8 L52.532,8.8 L54.284,11.752 L56.012,8.8 L56.504,8.8 L56.51,13 L55.934,13 Z M57.77,8.8 L58.37,8.8 L58.37,13 L57.77,13 L57.77,8.8 Z M63.242,8.8 L63.242,13 L62.75,13 L60.23,9.868 L60.23,13 L59.63,13 L59.63,8.8 L60.122,8.8 L62.642,11.932 L62.642,8.8 L63.242,8.8 Z M67.412,10.876 L67.988,10.876 L67.988,12.514 C67.779999,12.6860009 67.5380014,12.8179995 67.262,12.91 C66.9859986,13.0020005 66.6980015,13.048 66.398,13.048 C65.9739979,13.048 65.5920017,12.9550009 65.252,12.769 C64.9119983,12.5829991 64.645001,12.3270016 64.451,12.001 C64.256999,11.6749984 64.16,11.308002 64.16,10.9 C64.16,10.491998 64.256999,10.1240016 64.451,9.796 C64.645001,9.46799836 64.9129983,9.21200092 65.255,9.028 C65.5970017,8.84399908 65.9819979,8.752 66.41,8.752 C66.7460017,8.752 67.0509986,8.80699945 67.325,8.917 C67.5990014,9.02700055 67.831999,9.18799894 68.024,9.4 L67.652,9.772 C67.3159983,9.44799838 66.9100024,9.286 66.434,9.286 C66.1139984,9.286 65.8270013,9.35499931 65.573,9.493 C65.3189987,9.63100069 65.1200007,9.82299877 64.976,10.069 C64.8319993,10.3150012 64.76,10.5919985 64.76,10.9 C64.76,11.2040015 64.8319993,11.4789988 64.976,11.725 C65.1200007,11.9710012 65.3189987,12.1639993 65.573,12.304 C65.8270013,12.4440007 66.1119984,12.514 66.428,12.514 C66.8040019,12.514 67.1319986,12.4240009 67.412,12.244 L67.412,10.876 Z M71.972,13.048 C71.6559984,13.048 71.3510015,12.9990005 71.057,12.901 C70.7629985,12.8029995 70.5320008,12.6760008 70.364,12.52 L70.586,12.052 C70.7460008,12.1960007 70.9509987,12.3129996 71.201,12.403 C71.4510012,12.4930005 71.7079987,12.538 71.972,12.538 C72.3200017,12.538 72.5799991,12.4790006 72.752,12.361 C72.9240009,12.2429994 73.01,12.086001 73.01,11.89 C73.01,11.7459993 72.9630005,11.6290004 72.869,11.539 C72.7749995,11.4489995 72.6590007,11.3800002 72.521,11.332 C72.3829993,11.2839998 72.1880013,11.2300003 71.936,11.17 C71.6199984,11.0939996 71.365001,11.0180004 71.171,10.942 C70.976999,10.8659996 70.8110007,10.7490008 70.673,10.591 C70.5349993,10.4329992 70.466,10.2200013 70.466,9.952 C70.466,9.72799888 70.5249994,9.5260009 70.643,9.346 C70.7610006,9.1659991 70.9399988,9.02200054 71.18,8.914 C71.4200012,8.80599946 71.7179982,8.752 72.074,8.752 C72.3220012,8.752 72.5659988,8.78399968 72.806,8.848 C73.0460012,8.91200032 73.2519991,9.0039994 73.424,9.124 L73.226,9.604 C73.0499991,9.49199944 72.862001,9.40700029 72.662,9.349 C72.461999,9.29099971 72.266001,9.262 72.074,9.262 C71.7339983,9.262 71.4790009,9.32399938 71.309,9.448 C71.1389991,9.57200062 71.054,9.73199902 71.054,9.928 C71.054,10.0720007 71.1019995,10.1889996 71.198,10.279 C71.2940005,10.3690004 71.4129993,10.4389998 71.555,10.489 C71.6970007,10.5390003 71.8899988,10.5919997 72.134,10.648 C72.4500016,10.7240004 72.703999,10.7999996 72.896,10.876 C73.088001,10.9520004 73.2529993,11.0679992 73.391,11.224 C73.5290007,11.3800008 73.598,11.5899987 73.598,11.854 C73.598,12.0740011 73.5380006,12.2749991 73.418,12.457 C73.2979994,12.6390009 73.1160012,12.7829995 72.872,12.889 C72.6279988,12.9950005 72.3280018,13.048 71.972,13.048 Z M76.37,13.048 C75.9459979,13.048 75.5640017,12.9550009 75.224,12.769 C74.8839983,12.5829991 74.617001,12.3260016 74.423,11.998 C74.228999,11.6699984 74.132,11.304002 74.132,10.9 C74.132,10.495998 74.228999,10.1300016 74.423,9.802 C74.617001,9.47399836 74.8839983,9.21700093 75.224,9.031 C75.5640017,8.84499907 75.9459979,8.752 76.37,8.752 C76.7900021,8.752 77.1699983,8.84499907 77.51,9.031 C77.8500017,9.21700093 78.115999,9.47299837 78.308,9.799 C78.500001,10.1250016 78.596,10.491998 78.596,10.9 C78.596,11.308002 78.500001,11.6749984 78.308,12.001 C78.115999,12.3270016 77.8500017,12.5829991 77.51,12.769 C77.1699983,12.9550009 76.7900021,13.048 76.37,13.048 Z M76.37,12.514 C76.6780015,12.514 76.9549988,12.4440007 77.201,12.304 C77.4470012,12.1639993 77.6409993,11.9710012 77.783,11.725 C77.9250007,11.4789988 77.996,11.2040015 77.996,10.9 C77.996,10.5959985 77.9250007,10.3210012 77.783,10.075 C77.6409993,9.82899877 77.4470012,9.6360007 77.201,9.496 C76.9549988,9.3559993 76.6780015,9.286 76.37,9.286 C76.0619985,9.286 75.7830013,9.3559993 75.533,9.496 C75.2829988,9.6360007 75.0870007,9.82899877 74.945,10.075 C74.8029993,10.3210012 74.732,10.5959985 74.732,10.9 C74.732,11.2040015 74.8029993,11.4789988 74.945,11.725 C75.0870007,11.9710012 75.2829988,12.1639993 75.533,12.304 C75.7830013,12.4440007 76.0619985,12.514 76.37,12.514 Z M81.41,13.048 C80.9859979,13.048 80.6040017,12.9550009 80.264,12.769 C79.9239983,12.5829991 79.657001,12.3260016 79.463,11.998 C79.268999,11.6699984 79.172,11.304002 79.172,10.9 C79.172,10.495998 79.268999,10.1300016 79.463,9.802 C79.657001,9.47399836 79.9239983,9.21700093 80.264,9.031 C80.6040017,8.84499907 80.9859979,8.752 81.41,8.752 C81.8300021,8.752 82.2099983,8.84499907 82.55,9.031 C82.8900017,9.21700093 83.155999,9.47299837 83.348,9.799 C83.540001,10.1250016 83.636,10.491998 83.636,10.9 C83.636,11.308002 83.540001,11.6749984 83.348,12.001 C83.155999,12.3270016 82.8900017,12.5829991 82.55,12.769 C82.2099983,12.9550009 81.8300021,13.048 81.41,13.048 Z M81.41,12.514 C81.7180015,12.514 81.9949988,12.4440007 82.241,12.304 C82.4870012,12.1639993 82.6809993,11.9710012 82.823,11.725 C82.9650007,11.4789988 83.036,11.2040015 83.036,10.9 C83.036,10.5959985 82.9650007,10.3210012 82.823,10.075 C82.6809993,9.82899877 82.4870012,9.6360007 82.241,9.496 C81.9949988,9.3559993 81.7180015,9.286 81.41,9.286 C81.1019985,9.286 80.8230013,9.3559993 80.573,9.496 C80.3229987,9.6360007 80.1270007,9.82899877 79.985,10.075 C79.8429993,10.3210012 79.772,10.5959985 79.772,10.9 C79.772,11.2040015 79.8429993,11.4789988 79.985,11.725 C80.1270007,11.9710012 80.3229987,12.1639993 80.573,12.304 C80.8230013,12.4440007 81.1019985,12.514 81.41,12.514 Z M88.166,8.8 L88.166,13 L87.674,13 L85.154,9.868 L85.154,13 L84.554,13 L84.554,8.8 L85.046,8.8 L87.566,11.932 L87.566,8.8 L88.166,8.8 Z M91.874,9.322 L90.434,9.322 L90.434,8.8 L93.908,8.8 L93.908,9.322 L92.468,9.322 L92.468,13 L91.874,13 L91.874,9.322 Z M96.458,13.048 C96.0339979,13.048 95.6520017,12.9550009 95.312,12.769 C94.9719983,12.5829991 94.705001,12.3260016 94.511,11.998 C94.316999,11.6699984 94.22,11.304002 94.22,10.9 C94.22,10.495998 94.316999,10.1300016 94.511,9.802 C94.705001,9.47399836 94.9719983,9.21700093 95.312,9.031 C95.6520017,8.84499907 96.0339979,8.752 96.458,8.752 C96.8780021,8.752 97.2579983,8.84499907 97.598,9.031 C97.9380017,9.21700093 98.203999,9.47299837 98.396,9.799 C98.588001,10.1250016 98.684,10.491998 98.684,10.9 C98.684,11.308002 98.588001,11.6749984 98.396,12.001 C98.203999,12.3270016 97.9380017,12.5829991 97.598,12.769 C97.2579983,12.9550009 96.8780021,13.048 96.458,13.048 Z M96.458,12.514 C96.7660015,12.514 97.0429988,12.4440007 97.289,12.304 C97.5350012,12.1639993 97.7289993,11.9710012 97.871,11.725 C98.0130007,11.4789988 98.084,11.2040015 98.084,10.9 C98.084,10.5959985 98.0130007,10.3210012 97.871,10.075 C97.7289993,9.82899877 97.5350012,9.6360007 97.289,9.496 C97.0429988,9.3559993 96.7660015,9.286 96.458,9.286 C96.1499985,9.286 95.8710012,9.3559993 95.621,9.496 C95.3709987,9.6360007 95.1750007,9.82899877 95.033,10.075 C94.8909993,10.3210012 94.82,10.5959985 94.82,10.9 C94.82,11.2040015 94.8909993,11.4789988 95.033,11.725 C95.1750007,11.9710012 95.3709987,12.1639993 95.621,12.304 C95.8710012,12.4440007 96.1499985,12.514 96.458,12.514 Z M102.05,9.322 L100.61,9.322 L100.61,8.8 L104.084,8.8 L104.084,9.322 L102.644,9.322 L102.644,13 L102.05,13 L102.05,9.322 Z M108.35,8.8 L108.35,13 L107.75,13 L107.75,11.128 L105.338,11.128 L105.338,13 L104.738,13 L104.738,8.8 L105.338,8.8 L105.338,10.606 L107.75,10.606 L107.75,8.8 L108.35,8.8 Z M112.658,12.478 L112.658,13 L109.61,13 L109.61,8.8 L112.574,8.8 L112.574,9.322 L110.21,9.322 L110.21,10.612 L112.316,10.612 L112.316,11.122 L110.21,11.122 L110.21,12.478 L112.658,12.478 Z" id="COMING-SOON-TO-THE" fill="#FFFFFF"></path>
                    <path d="M48.672,25.668 L50.448,25.668 L50.448,29.076 C49.9919977,29.4200017 49.464003,29.6839991 48.864,29.868 C48.263997,30.0520009 47.660003,30.144 47.052,30.144 C46.1799956,30.144 45.3960035,29.9580019 44.7,29.586 C44.0039965,29.2139981 43.458002,28.6980033 43.062,28.038 C42.665998,27.3779967 42.468,26.6320042 42.468,25.8 C42.468,24.9679958 42.665998,24.2220033 43.062,23.562 C43.458002,22.9019967 44.0079965,22.3860019 44.712,22.014 C45.4160035,21.6419981 46.2079956,21.456 47.088,21.456 C47.8240037,21.456 48.491997,21.5799988 49.092,21.828 C49.692003,22.0760012 50.195998,22.4359976 50.604,22.908 L49.356,24.06 C48.755997,23.4279968 48.0320042,23.112 47.184,23.112 C46.6479973,23.112 46.1720021,23.2239989 45.756,23.448 C45.3399979,23.6720011 45.0160012,23.987998 44.784,24.396 C44.5519988,24.804002 44.436,25.2719974 44.436,25.8 C44.436,26.3200026 44.5519988,26.783998 44.784,27.192 C45.0160012,27.600002 45.3379979,27.9179989 45.75,28.146 C46.1620021,28.3740011 46.6319974,28.488 47.16,28.488 C47.7200028,28.488 48.2239978,28.3680012 48.672,28.128 L48.672,25.668 Z M55.188,30.096 C54.5079966,30.096 53.8980027,29.9540014 53.358,29.67 C52.8179973,29.3859986 52.3960015,28.9920025 52.092,28.488 C51.7879985,27.9839975 51.636,27.4120032 51.636,26.772 C51.636,26.1319968 51.7879985,25.5600025 52.092,25.056 C52.3960015,24.5519975 52.8179973,24.1580014 53.358,23.874 C53.8980027,23.5899986 54.5079966,23.448 55.188,23.448 C55.8680034,23.448 56.4759973,23.5899986 57.012,23.874 C57.5480027,24.1580014 57.9679985,24.5519975 58.272,25.056 C58.5760015,25.5600025 58.728,26.1319968 58.728,26.772 C58.728,27.4120032 58.5760015,27.9839975 58.272,28.488 C57.9679985,28.9920025 57.5480027,29.3859986 57.012,29.67 C56.4759973,29.9540014 55.8680034,30.096 55.188,30.096 Z M55.188,28.56 C55.6680024,28.56 56.0619985,28.3980016 56.37,28.074 C56.6780015,27.7499984 56.832,27.3160027 56.832,26.772 C56.832,26.2279973 56.6780015,25.7940016 56.37,25.47 C56.0619985,25.1459984 55.6680024,24.984 55.188,24.984 C54.7079976,24.984 54.3120016,25.1459984 54,25.47 C53.6879984,25.7940016 53.532,26.2279973 53.532,26.772 C53.532,27.3160027 53.6879984,27.7499984 54,28.074 C54.3120016,28.3980016 54.7079976,28.56 55.188,28.56 Z M63.048,30.096 C62.3679966,30.096 61.7580027,29.9540014 61.218,29.67 C60.6779973,29.3859986 60.2560015,28.9920025 59.952,28.488 C59.6479985,27.9839975 59.496,27.4120032 59.496,26.772 C59.496,26.1319968 59.6479985,25.5600025 59.952,25.056 C60.2560015,24.5519975 60.6779973,24.1580014 61.218,23.874 C61.7580027,23.5899986 62.3679966,23.448 63.048,23.448 C63.7280034,23.448 64.3359973,23.5899986 64.872,23.874 C65.4080027,24.1580014 65.8279985,24.5519975 66.132,25.056 C66.4360015,25.5600025 66.588,26.1319968 66.588,26.772 C66.588,27.4120032 66.4360015,27.9839975 66.132,28.488 C65.8279985,28.9920025 65.4080027,29.3859986 64.872,29.67 C64.3359973,29.9540014 63.7280034,30.096 63.048,30.096 Z M63.048,28.56 C63.5280024,28.56 63.9219985,28.3980016 64.23,28.074 C64.5380015,27.7499984 64.692,27.3160027 64.692,26.772 C64.692,26.2279973 64.5380015,25.7940016 64.23,25.47 C63.9219985,25.1459984 63.5280024,24.984 63.048,24.984 C62.5679976,24.984 62.1720016,25.1459984 61.86,25.47 C61.5479984,25.7940016 61.392,26.2279973 61.392,26.772 C61.392,27.3160027 61.5479984,27.7499984 61.86,28.074 C62.1720016,28.3980016 62.5679976,28.56 63.048,28.56 Z M74.496,23.544 L74.496,28.92 C74.496,30.1040059 74.1880031,30.9839971 73.572,31.56 C72.9559969,32.1360029 72.0560059,32.424 70.872,32.424 C70.2479969,32.424 69.6560028,32.3480008 69.096,32.196 C68.5359972,32.0439992 68.0720018,31.8240014 67.704,31.536 L68.448,30.192 C68.7200014,30.4160011 69.0639979,30.5939993 69.48,30.726 C69.8960021,30.8580007 70.3119979,30.924 70.728,30.924 C71.3760032,30.924 71.8539985,30.7780015 72.162,30.486 C72.4700015,30.1939985 72.624,29.752003 72.624,29.16 L72.624,28.884 C72.1359976,29.4200027 71.4560044,29.688 70.584,29.688 C69.991997,29.688 69.4500025,29.5580013 68.958,29.298 C68.4659975,29.0379987 68.0760014,28.6720024 67.788,28.2 C67.4999986,27.7279976 67.356,27.1840031 67.356,26.568 C67.356,25.9519969 67.4999986,25.4080024 67.788,24.936 C68.0760014,24.4639976 68.4659975,24.0980013 68.958,23.838 C69.4500025,23.5779987 69.991997,23.448 70.584,23.448 C71.5200047,23.448 72.2319976,23.7559969 72.72,24.372 L72.72,23.544 L74.496,23.544 Z M70.956,28.152 C71.4520025,28.152 71.8579984,28.0060015 72.174,27.714 C72.4900016,27.4219985 72.648,27.0400024 72.648,26.568 C72.648,26.0959976 72.4900016,25.7140015 72.174,25.422 C71.8579984,25.1299985 71.4520025,24.984 70.956,24.984 C70.4599975,24.984 70.0520016,25.1299985 69.732,25.422 C69.4119984,25.7140015 69.252,26.0959976 69.252,26.568 C69.252,27.0400024 69.4119984,27.4219985 69.732,27.714 C70.0520016,28.0060015 70.4599975,28.152 70.956,28.152 Z M76.236,21.096 L78.108,21.096 L78.108,30 L76.236,30 L76.236,21.096 Z M86.172,26.796 C86.172,26.8200001 86.1600001,26.9879984 86.136,27.3 L81.252,27.3 C81.3400004,27.700002 81.5479984,28.0159988 81.876,28.248 C82.2040016,28.4800012 82.6119976,28.596 83.1,28.596 C83.4360017,28.596 83.7339987,28.5460005 83.994,28.446 C84.2540013,28.3459995 84.4959989,28.1880011 84.72,27.972 L85.716,29.052 C85.107997,29.7480035 84.2200058,30.096 83.052,30.096 C82.3239964,30.096 81.6800028,29.9540014 81.12,29.67 C80.5599972,29.3859986 80.1280015,28.9920025 79.824,28.488 C79.5199985,27.9839975 79.368,27.4120032 79.368,26.772 C79.368,26.1399968 79.5179985,25.5700025 79.818,25.062 C80.1180015,24.5539975 80.5299974,24.1580014 81.054,23.874 C81.5780026,23.5899986 82.1639968,23.448 82.812,23.448 C83.4440032,23.448 84.0159974,23.5839986 84.528,23.856 C85.0400026,24.1280014 85.4419985,24.5179975 85.734,25.026 C86.0260015,25.5340025 86.172,26.1239966 86.172,26.796 Z M82.824,24.864 C82.3999979,24.864 82.0440014,24.9839988 81.756,25.224 C81.4679986,25.4640012 81.2920003,25.7919979 81.228,26.208 L84.408,26.208 C84.3439997,25.799998 84.1680014,25.4740012 83.88,25.23 C83.5919986,24.9859988 83.2400021,24.864 82.824,24.864 Z M94.584,21.6 C95.3280037,21.6 95.9739973,21.7239988 96.522,21.972 C97.0700027,22.2200012 97.4919985,22.5719977 97.788,23.028 C98.0840015,23.4840023 98.232,24.0239969 98.232,24.648 C98.232,25.2640031 98.0840015,25.8019977 97.788,26.262 C97.4919985,26.7220023 97.0700027,27.0739988 96.522,27.318 C95.9739973,27.5620012 95.3280037,27.684 94.584,27.684 L92.892,27.684 L92.892,30 L90.948,30 L90.948,21.6 L94.584,21.6 Z M94.476,26.1 C95.0600029,26.1 95.5039985,25.9740013 95.808,25.722 C96.1120015,25.4699987 96.264,25.1120023 96.264,24.648 C96.264,24.1759976 96.1120015,23.8140013 95.808,23.562 C95.5039985,23.3099987 95.0600029,23.184 94.476,23.184 L92.892,23.184 L92.892,26.1 L94.476,26.1 Z M99.6,21.096 L101.472,21.096 L101.472,30 L99.6,30 L99.6,21.096 Z M105.816,23.448 C106.816005,23.448 107.583997,23.6859976 108.12,24.162 C108.656003,24.6380024 108.924,25.3559952 108.924,26.316 L108.924,30 L107.172,30 L107.172,29.196 C106.819998,29.796003 106.164005,30.096 105.204,30.096 C104.707998,30.096 104.278002,30.0120008 103.914,29.844 C103.549998,29.6759992 103.272001,29.4440015 103.08,29.148 C102.887999,28.8519985 102.792,28.5160019 102.792,28.14 C102.792,27.539997 103.017998,27.0680017 103.47,26.724 C103.922002,26.3799983 104.619995,26.208 105.564,26.208 L107.052,26.208 C107.052,25.799998 106.928001,25.4860011 106.68,25.266 C106.431999,25.0459989 106.060002,24.936 105.564,24.936 C105.219998,24.936 104.882002,24.9899995 104.55,25.098 C104.217998,25.2060005 103.936001,25.3519991 103.704,25.536 L103.032,24.228 C103.384002,23.9799988 103.805998,23.7880007 104.298,23.652 C104.790002,23.5159993 105.295997,23.448 105.816,23.448 Z M105.672,28.836 C105.992002,28.836 106.275999,28.7620007 106.524,28.614 C106.772001,28.4659993 106.947999,28.2480014 107.052,27.96 L107.052,27.3 L105.768,27.3 C104.999996,27.3 104.616,27.5519975 104.616,28.056 C104.616,28.2960012 104.709999,28.4859993 104.898,28.626 C105.086001,28.7660007 105.343998,28.836 105.672,28.836 Z M117.024,23.544 L114.108,30.396 C113.811999,31.1400037 113.446002,31.6639985 113.01,31.968 C112.573998,32.2720015 112.048003,32.424 111.432,32.424 C111.095998,32.424 110.764002,32.3720005 110.436,32.268 C110.107998,32.1639995 109.840001,32.0200009 109.632,31.836 L110.316,30.504 C110.460001,30.6320006 110.625999,30.7319996 110.814,30.804 C111.002001,30.8760004 111.187999,30.912 111.372,30.912 C111.628001,30.912 111.835999,30.8500006 111.996,30.726 C112.156001,30.6019994 112.299999,30.3960014 112.428,30.108 L112.452,30.048 L109.656,23.544 L111.588,23.544 L113.4,27.924 L115.224,23.544 L117.024,23.544 Z" id="Google-Play" fill="#FFFFFF"></path>
                </g>
            </g>
        </g>
    </g>
</svg>