<svg xmlns="http://www.w3.org/2000/svg" width="32" height="32" viewBox="0 0 32 32">
    <g fill="none" fill-rule="nonzero">
        <g fill="#0052B4">
            <path d="M3.304 6.252a15.925 15.925 0 0 0-2.753 5.562h8.315L3.304 6.252zM31.416 11.814a15.926 15.926 0 0 0-2.753-5.562L23.1 11.814h8.315zM.55 20.153a15.927 15.927 0 0 0 2.754 5.561l5.561-5.561H.551zM25.714 3.304A15.926 15.926 0 0 0 20.153.551v8.315l5.561-5.562zM6.252 28.663a15.926 15.926 0 0 0 5.562 2.753v-8.315l-5.562 5.562zM11.814.55a15.927 15.927 0 0 0-5.562 2.754l5.562 5.561V.551zM20.153 31.416a15.927 15.927 0 0 0 5.561-2.753L20.153 23.1v8.315zM23.101 20.153l5.562 5.561a15.926 15.926 0 0 0 2.753-5.561h-8.315z"/>
        </g>
        <g fill="#D80027">
            <path d="M31.831 13.899H18.068V.135a16.143 16.143 0 0 0-4.17 0v13.763H.136a16.143 16.143 0 0 0 0 4.17h13.763v13.763a16.141 16.141 0 0 0 4.17 0V18.068h13.763a16.141 16.141 0 0 0 0-4.17z"/>
            <path d="M20.153 20.153l7.132 7.132c.328-.328.641-.67.94-1.026l-6.106-6.106h-1.966zM11.814 20.153L4.68 27.285c.328.328.671.641 1.026.94l6.107-6.107v-1.965zM11.814 11.814L4.68 4.68c-.328.328-.64.671-.94 1.026l6.107 6.107h1.966zM20.153 11.814l7.132-7.133c-.328-.328-.67-.64-1.026-.939l-6.106 6.106v1.966z"/>
        </g>
    </g>
</svg>
