<svg width="21" height="12" viewBox="0 0 21 12" fill="none" xmlns="http://www.w3.org/2000/svg">
<path fill-rule="evenodd" clip-rule="evenodd" d="M6 7.2V5.14286H11.6657C11.7024 5.35696 11.7352 5.57106 11.751 5.81944C11.7573 5.91909 11.7609 6.02425 11.7609 6.13714C11.7609 9.56571 9.46286 12 6 12C2.68286 12 0 9.31714 0 6C0 2.68286 2.68286 0 6 0C7.62 0 8.97429 0.591429 10.02 1.56857L8.39143 3.13714C7.94571 2.70857 7.16571 2.21143 6 2.21143C3.95143 2.21143 2.28 3.90857 2.28 6C2.28 8.09229 3.95143 9.78857 6 9.78857C8.37429 9.78857 9.26571 8.082 9.40286 7.2H6ZM18 6.85714H20.5714V5.14286H18V2.57143H16.2857V5.14286H13.7143V6.05042V6.85714H16.2857V9.42857H18V6.85714Z" fill="#99A5B2"/>
</svg>
