<svg width="16" height="16" viewBox="0 0 16 16" fill="none" xmlns="http://www.w3.org/2000/svg">
<path fill-rule="evenodd" clip-rule="evenodd" d="M3 0H12.6C14.2667 0 15.6 1.33333 15.6 3V6.2V12.6C15.6 14.2667 14.2667 15.6 12.6 15.6H3C1.33333 15.6 0 14.2667 0 12.6V6.2V3C0 1.33333 1.33333 0 3 0ZM13.8 1.8H13.4667H11.1333V4.46667H13.8V2.13333V1.8ZM5.6 6.2C6.06667 5.53333 6.93333 5.06667 7.8 5.06667C8.66667 5.06667 9.53333 5.53333 10 6.2C10.3333 6.66667 10.5333 7.2 10.5333 7.8C10.5333 9.33333 9.26667 10.5333 7.8 10.5333C6.33333 10.5333 5.06667 9.33333 5.06667 7.8C5.06667 7.2 5.26667 6.66667 5.6 6.2ZM12.6 14.0667C13.4 14.0667 14.0667 13.4 14.0667 12.6V6.2H11.7333C11.9333 6.66667 12.0667 7.26667 12.0667 7.8C12.0667 10.1333 10.1333 12.0667 7.8 12.0667C5.46667 12.0667 3.53333 10.1333 3.53333 7.8C3.53333 7.26667 3.66667 6.66667 3.86667 6.2H1.53333V12.6C1.53333 13.4 2.2 14.0667 3 14.0667H12.6Z" fill="#99A5B2"/>
</svg>
