<?xml version="1.0" encoding="UTF-8"?>
<svg width="130px" height="40px" viewBox="0 0 130 40" version="1.1" xmlns="http://www.w3.org/2000/svg" xmlns:xlink="http://www.w3.org/1999/xlink">
    <!-- Generator: Sketch 52.3 (67297) - http://www.bohemiancoding.com/sketch -->
    <title>Group 4</title>
    <desc>Created with Sketch.</desc>
    <g id="Page-2" stroke="none" stroke-width="1" fill="none" fill-rule="evenodd">
        <g id="Fundraising-:desktop-:subscribed" transform="translate(-1019.000000, -38.000000)">
            <g id="Group-9" transform="translate(1019.000000, 38.000000)">
                <g id="Group-4">
                    <rect id="Rectangle" fill="#DDE4EA" fill-rule="nonzero" x="0" y="0" width="130" height="40" rx="4"></rect>
                    <path d="M29.5512195,25.4757561 C29.1926829,26.3040488 28.7682927,27.0664878 28.2765854,27.7674634 C27.6063415,28.7230732 27.057561,29.3845366 26.6346341,29.7518537 C25.9790244,30.3547805 25.2765854,30.663561 24.5243902,30.681122 C23.9843902,30.681122 23.3331707,30.5274634 22.575122,30.2157561 C21.8145854,29.9055122 21.1156585,29.7518537 20.4765854,29.7518537 C19.8063415,29.7518537 19.0875122,29.9055122 18.3186341,30.2157561 C17.5485854,30.5274634 16.9282439,30.6899024 16.4539512,30.706 C15.7326341,30.7367317 15.0136585,30.4191707 14.296,29.7518537 C13.8379512,29.3523415 13.2650244,28.6674634 12.5786829,27.6972195 C11.8422927,26.661122 11.236878,25.4596585 10.7625854,24.0899024 C10.2546341,22.6103902 10,21.1777073 10,19.7906829 C10,18.2018537 10.3433171,16.8315122 11.0309756,15.6831707 C11.5714146,14.7607805 12.2903902,14.0331707 13.1902439,13.4990244 C14.0900976,12.964878 15.0623902,12.6926829 16.1094634,12.6752683 C16.6823902,12.6752683 17.4337073,12.8524878 18.3673659,13.2007805 C19.2983902,13.5502439 19.8961951,13.7274634 20.1582927,13.7274634 C20.3542439,13.7274634 21.0183415,13.5202439 22.1441463,13.107122 C23.2087805,12.724 24.1073171,12.5653659 24.8434146,12.6278537 C26.8380488,12.7888293 28.3365854,13.575122 29.3331707,14.9917073 C27.5492683,16.0725854 26.6668293,17.5864878 26.6843902,19.5285854 C26.7004878,21.0413171 27.2492683,22.3001463 28.3278049,23.2996585 C28.8165854,23.763561 29.362439,24.1220976 29.9697561,24.3767317 C29.8380488,24.7586829 29.6990244,25.1245366 29.5512195,25.4757561 Z M24.9765854,7.47429268 C24.9765854,8.65996585 24.5434146,9.76702439 23.68,10.7917073 C22.6380488,12.0098537 21.3777561,12.7137561 20.0110732,12.6026829 C19.9936585,12.460439 19.983561,12.3107317 19.983561,12.1534146 C19.983561,11.0151707 20.4790732,9.79702439 21.3590244,8.80102439 C21.7983415,8.29673171 22.3570732,7.87741951 23.0346341,7.54292683 C23.7107317,7.21342439 24.3502439,7.0312 24.9517073,7 C24.9692683,7.15850244 24.9765854,7.31701951 24.9765854,7.47427805 L24.9765854,7.47429268 Z" id="Shape" fill="#FFFFFF" fill-rule="nonzero"></path>
                    <path d="M44.54,13.048 C44.1199979,13.048 43.7410017,12.9550009 43.403,12.769 C43.0649983,12.5829991 42.800001,12.3270016 42.608,12.001 C42.415999,11.6749984 42.32,11.308002 42.32,10.9 C42.32,10.491998 42.415999,10.1250016 42.608,9.799 C42.800001,9.47299837 43.0659983,9.21700093 43.406,9.031 C43.7460017,8.84499907 44.1259979,8.752 44.546,8.752 C44.8740016,8.752 45.1739986,8.80699945 45.446,8.917 C45.7180014,9.02700055 45.949999,9.18999892 46.142,9.406 L45.752,9.784 C45.4359984,9.45199834 45.0420024,9.286 44.57,9.286 C44.2579984,9.286 43.9760013,9.3559993 43.724,9.496 C43.4719987,9.6360007 43.2750007,9.82899877 43.133,10.075 C42.9909993,10.3210012 42.92,10.5959985 42.92,10.9 C42.92,11.2040015 42.9909993,11.4789988 43.133,11.725 C43.2750007,11.9710012 43.4719987,12.1639993 43.724,12.304 C43.9760013,12.4440007 44.2579984,12.514 44.57,12.514 C45.0380023,12.514 45.4319984,12.3460017 45.752,12.01 L46.142,12.388 C45.949999,12.6040011 45.7170014,12.7679994 45.443,12.88 C45.1689986,12.9920006 44.8680016,13.048 44.54,13.048 Z M48.896,13.048 C48.4719979,13.048 48.0900017,12.9550009 47.75,12.769 C47.4099983,12.5829991 47.143001,12.3260016 46.949,11.998 C46.754999,11.6699984 46.658,11.304002 46.658,10.9 C46.658,10.495998 46.754999,10.1300016 46.949,9.802 C47.143001,9.47399836 47.4099983,9.21700093 47.75,9.031 C48.0900017,8.84499907 48.4719979,8.752 48.896,8.752 C49.3160021,8.752 49.6959983,8.84499907 50.036,9.031 C50.3760017,9.21700093 50.641999,9.47299837 50.834,9.799 C51.026001,10.1250016 51.122,10.491998 51.122,10.9 C51.122,11.308002 51.026001,11.6749984 50.834,12.001 C50.641999,12.3270016 50.3760017,12.5829991 50.036,12.769 C49.6959983,12.9550009 49.3160021,13.048 48.896,13.048 Z M48.896,12.514 C49.2040015,12.514 49.4809988,12.4440007 49.727,12.304 C49.9730012,12.1639993 50.1669993,11.9710012 50.309,11.725 C50.4510007,11.4789988 50.522,11.2040015 50.522,10.9 C50.522,10.5959985 50.4510007,10.3210012 50.309,10.075 C50.1669993,9.82899877 49.9730012,9.6360007 49.727,9.496 C49.4809988,9.3559993 49.2040015,9.286 48.896,9.286 C48.5879985,9.286 48.3090012,9.3559993 48.059,9.496 C47.8089987,9.6360007 47.6130007,9.82899877 47.471,10.075 C47.3289993,10.3210012 47.258,10.5959985 47.258,10.9 C47.258,11.2040015 47.3289993,11.4789988 47.471,11.725 C47.6130007,11.9710012 47.8089987,12.1639993 48.059,12.304 C48.3090012,12.4440007 48.5879985,12.514 48.896,12.514 Z M55.934,13 L55.928,9.94 L54.41,12.49 L54.134,12.49 L52.616,9.958 L52.616,13 L52.04,13 L52.04,8.8 L52.532,8.8 L54.284,11.752 L56.012,8.8 L56.504,8.8 L56.51,13 L55.934,13 Z M57.77,8.8 L58.37,8.8 L58.37,13 L57.77,13 L57.77,8.8 Z M63.242,8.8 L63.242,13 L62.75,13 L60.23,9.868 L60.23,13 L59.63,13 L59.63,8.8 L60.122,8.8 L62.642,11.932 L62.642,8.8 L63.242,8.8 Z M67.412,10.876 L67.988,10.876 L67.988,12.514 C67.779999,12.6860009 67.5380014,12.8179995 67.262,12.91 C66.9859986,13.0020005 66.6980015,13.048 66.398,13.048 C65.9739979,13.048 65.5920017,12.9550009 65.252,12.769 C64.9119983,12.5829991 64.645001,12.3270016 64.451,12.001 C64.256999,11.6749984 64.16,11.308002 64.16,10.9 C64.16,10.491998 64.256999,10.1240016 64.451,9.796 C64.645001,9.46799836 64.9129983,9.21200092 65.255,9.028 C65.5970017,8.84399908 65.9819979,8.752 66.41,8.752 C66.7460017,8.752 67.0509986,8.80699945 67.325,8.917 C67.5990014,9.02700055 67.831999,9.18799894 68.024,9.4 L67.652,9.772 C67.3159983,9.44799838 66.9100024,9.286 66.434,9.286 C66.1139984,9.286 65.8270013,9.35499931 65.573,9.493 C65.3189987,9.63100069 65.1200007,9.82299877 64.976,10.069 C64.8319993,10.3150012 64.76,10.5919985 64.76,10.9 C64.76,11.2040015 64.8319993,11.4789988 64.976,11.725 C65.1200007,11.9710012 65.3189987,12.1639993 65.573,12.304 C65.8270013,12.4440007 66.1119984,12.514 66.428,12.514 C66.8040019,12.514 67.1319986,12.4240009 67.412,12.244 L67.412,10.876 Z M71.972,13.048 C71.6559984,13.048 71.3510015,12.9990005 71.057,12.901 C70.7629985,12.8029995 70.5320008,12.6760008 70.364,12.52 L70.586,12.052 C70.7460008,12.1960007 70.9509987,12.3129996 71.201,12.403 C71.4510012,12.4930005 71.7079987,12.538 71.972,12.538 C72.3200017,12.538 72.5799991,12.4790006 72.752,12.361 C72.9240009,12.2429994 73.01,12.086001 73.01,11.89 C73.01,11.7459993 72.9630005,11.6290004 72.869,11.539 C72.7749995,11.4489995 72.6590007,11.3800002 72.521,11.332 C72.3829993,11.2839998 72.1880013,11.2300003 71.936,11.17 C71.6199984,11.0939996 71.365001,11.0180004 71.171,10.942 C70.976999,10.8659996 70.8110007,10.7490008 70.673,10.591 C70.5349993,10.4329992 70.466,10.2200013 70.466,9.952 C70.466,9.72799888 70.5249994,9.5260009 70.643,9.346 C70.7610006,9.1659991 70.9399988,9.02200054 71.18,8.914 C71.4200012,8.80599946 71.7179982,8.752 72.074,8.752 C72.3220012,8.752 72.5659988,8.78399968 72.806,8.848 C73.0460012,8.91200032 73.2519991,9.0039994 73.424,9.124 L73.226,9.604 C73.0499991,9.49199944 72.862001,9.40700029 72.662,9.349 C72.461999,9.29099971 72.266001,9.262 72.074,9.262 C71.7339983,9.262 71.4790009,9.32399938 71.309,9.448 C71.1389991,9.57200062 71.054,9.73199902 71.054,9.928 C71.054,10.0720007 71.1019995,10.1889996 71.198,10.279 C71.2940005,10.3690004 71.4129993,10.4389998 71.555,10.489 C71.6970007,10.5390003 71.8899988,10.5919997 72.134,10.648 C72.4500016,10.7240004 72.703999,10.7999996 72.896,10.876 C73.088001,10.9520004 73.2529993,11.0679992 73.391,11.224 C73.5290007,11.3800008 73.598,11.5899987 73.598,11.854 C73.598,12.0740011 73.5380006,12.2749991 73.418,12.457 C73.2979994,12.6390009 73.1160012,12.7829995 72.872,12.889 C72.6279988,12.9950005 72.3280018,13.048 71.972,13.048 Z M76.37,13.048 C75.9459979,13.048 75.5640017,12.9550009 75.224,12.769 C74.8839983,12.5829991 74.617001,12.3260016 74.423,11.998 C74.228999,11.6699984 74.132,11.304002 74.132,10.9 C74.132,10.495998 74.228999,10.1300016 74.423,9.802 C74.617001,9.47399836 74.8839983,9.21700093 75.224,9.031 C75.5640017,8.84499907 75.9459979,8.752 76.37,8.752 C76.7900021,8.752 77.1699983,8.84499907 77.51,9.031 C77.8500017,9.21700093 78.115999,9.47299837 78.308,9.799 C78.500001,10.1250016 78.596,10.491998 78.596,10.9 C78.596,11.308002 78.500001,11.6749984 78.308,12.001 C78.115999,12.3270016 77.8500017,12.5829991 77.51,12.769 C77.1699983,12.9550009 76.7900021,13.048 76.37,13.048 Z M76.37,12.514 C76.6780015,12.514 76.9549988,12.4440007 77.201,12.304 C77.4470012,12.1639993 77.6409993,11.9710012 77.783,11.725 C77.9250007,11.4789988 77.996,11.2040015 77.996,10.9 C77.996,10.5959985 77.9250007,10.3210012 77.783,10.075 C77.6409993,9.82899877 77.4470012,9.6360007 77.201,9.496 C76.9549988,9.3559993 76.6780015,9.286 76.37,9.286 C76.0619985,9.286 75.7830013,9.3559993 75.533,9.496 C75.2829988,9.6360007 75.0870007,9.82899877 74.945,10.075 C74.8029993,10.3210012 74.732,10.5959985 74.732,10.9 C74.732,11.2040015 74.8029993,11.4789988 74.945,11.725 C75.0870007,11.9710012 75.2829988,12.1639993 75.533,12.304 C75.7830013,12.4440007 76.0619985,12.514 76.37,12.514 Z M81.41,13.048 C80.9859979,13.048 80.6040017,12.9550009 80.264,12.769 C79.9239983,12.5829991 79.657001,12.3260016 79.463,11.998 C79.268999,11.6699984 79.172,11.304002 79.172,10.9 C79.172,10.495998 79.268999,10.1300016 79.463,9.802 C79.657001,9.47399836 79.9239983,9.21700093 80.264,9.031 C80.6040017,8.84499907 80.9859979,8.752 81.41,8.752 C81.8300021,8.752 82.2099983,8.84499907 82.55,9.031 C82.8900017,9.21700093 83.155999,9.47299837 83.348,9.799 C83.540001,10.1250016 83.636,10.491998 83.636,10.9 C83.636,11.308002 83.540001,11.6749984 83.348,12.001 C83.155999,12.3270016 82.8900017,12.5829991 82.55,12.769 C82.2099983,12.9550009 81.8300021,13.048 81.41,13.048 Z M81.41,12.514 C81.7180015,12.514 81.9949988,12.4440007 82.241,12.304 C82.4870012,12.1639993 82.6809993,11.9710012 82.823,11.725 C82.9650007,11.4789988 83.036,11.2040015 83.036,10.9 C83.036,10.5959985 82.9650007,10.3210012 82.823,10.075 C82.6809993,9.82899877 82.4870012,9.6360007 82.241,9.496 C81.9949988,9.3559993 81.7180015,9.286 81.41,9.286 C81.1019985,9.286 80.8230013,9.3559993 80.573,9.496 C80.3229987,9.6360007 80.1270007,9.82899877 79.985,10.075 C79.8429993,10.3210012 79.772,10.5959985 79.772,10.9 C79.772,11.2040015 79.8429993,11.4789988 79.985,11.725 C80.1270007,11.9710012 80.3229987,12.1639993 80.573,12.304 C80.8230013,12.4440007 81.1019985,12.514 81.41,12.514 Z M88.166,8.8 L88.166,13 L87.674,13 L85.154,9.868 L85.154,13 L84.554,13 L84.554,8.8 L85.046,8.8 L87.566,11.932 L87.566,8.8 L88.166,8.8 Z M91.874,9.322 L90.434,9.322 L90.434,8.8 L93.908,8.8 L93.908,9.322 L92.468,9.322 L92.468,13 L91.874,13 L91.874,9.322 Z M96.458,13.048 C96.0339979,13.048 95.6520017,12.9550009 95.312,12.769 C94.9719983,12.5829991 94.705001,12.3260016 94.511,11.998 C94.316999,11.6699984 94.22,11.304002 94.22,10.9 C94.22,10.495998 94.316999,10.1300016 94.511,9.802 C94.705001,9.47399836 94.9719983,9.21700093 95.312,9.031 C95.6520017,8.84499907 96.0339979,8.752 96.458,8.752 C96.8780021,8.752 97.2579983,8.84499907 97.598,9.031 C97.9380017,9.21700093 98.203999,9.47299837 98.396,9.799 C98.588001,10.1250016 98.684,10.491998 98.684,10.9 C98.684,11.308002 98.588001,11.6749984 98.396,12.001 C98.203999,12.3270016 97.9380017,12.5829991 97.598,12.769 C97.2579983,12.9550009 96.8780021,13.048 96.458,13.048 Z M96.458,12.514 C96.7660015,12.514 97.0429988,12.4440007 97.289,12.304 C97.5350012,12.1639993 97.7289993,11.9710012 97.871,11.725 C98.0130007,11.4789988 98.084,11.2040015 98.084,10.9 C98.084,10.5959985 98.0130007,10.3210012 97.871,10.075 C97.7289993,9.82899877 97.5350012,9.6360007 97.289,9.496 C97.0429988,9.3559993 96.7660015,9.286 96.458,9.286 C96.1499985,9.286 95.8710012,9.3559993 95.621,9.496 C95.3709987,9.6360007 95.1750007,9.82899877 95.033,10.075 C94.8909993,10.3210012 94.82,10.5959985 94.82,10.9 C94.82,11.2040015 94.8909993,11.4789988 95.033,11.725 C95.1750007,11.9710012 95.3709987,12.1639993 95.621,12.304 C95.8710012,12.4440007 96.1499985,12.514 96.458,12.514 Z M102.05,9.322 L100.61,9.322 L100.61,8.8 L104.084,8.8 L104.084,9.322 L102.644,9.322 L102.644,13 L102.05,13 L102.05,9.322 Z M108.35,8.8 L108.35,13 L107.75,13 L107.75,11.128 L105.338,11.128 L105.338,13 L104.738,13 L104.738,8.8 L105.338,8.8 L105.338,10.606 L107.75,10.606 L107.75,8.8 L108.35,8.8 Z M112.658,12.478 L112.658,13 L109.61,13 L109.61,8.8 L112.574,8.8 L112.574,9.322 L110.21,9.322 L110.21,10.612 L112.316,10.612 L112.316,11.122 L110.21,11.122 L110.21,12.478 L112.658,12.478 Z" id="COMING-SOON-TO-THE" fill="#FFFFFF"></path>
                    <path d="M48.528,28.2 L44.628,28.2 L43.884,30 L41.892,30 L45.636,21.6 L47.556,21.6 L51.312,30 L49.272,30 L48.528,28.2 Z M47.916,26.724 L46.584,23.508 L45.252,26.724 L47.916,26.724 Z M55.872,23.448 C56.472003,23.448 57.0179975,23.5859986 57.51,23.862 C58.0020025,24.1380014 58.3879986,24.5259975 58.668,25.026 C58.9480014,25.5260025 59.088,26.1079967 59.088,26.772 C59.088,27.4360033 58.9480014,28.0179975 58.668,28.518 C58.3879986,29.0180025 58.0020025,29.4059986 57.51,29.682 C57.0179975,29.9580014 56.472003,30.096 55.872,30.096 C55.0479959,30.096 54.4000024,29.8360026 53.928,29.316 L53.928,32.328 L52.056,32.328 L52.056,23.544 L53.844,23.544 L53.844,24.288 C54.3080023,23.7279972 54.9839956,23.448 55.872,23.448 Z M55.548,28.56 C56.0280024,28.56 56.4219985,28.3980016 56.73,28.074 C57.0380015,27.7499984 57.192,27.3160027 57.192,26.772 C57.192,26.2279973 57.0380015,25.7940016 56.73,25.47 C56.4219985,25.1459984 56.0280024,24.984 55.548,24.984 C55.0679976,24.984 54.6740015,25.1459984 54.366,25.47 C54.0579985,25.7940016 53.904,26.2279973 53.904,26.772 C53.904,27.3160027 54.0579985,27.7499984 54.366,28.074 C54.6740015,28.3980016 55.0679976,28.56 55.548,28.56 Z M64.152,23.448 C64.752003,23.448 65.2979975,23.5859986 65.79,23.862 C66.2820025,24.1380014 66.6679986,24.5259975 66.948,25.026 C67.2280014,25.5260025 67.368,26.1079967 67.368,26.772 C67.368,27.4360033 67.2280014,28.0179975 66.948,28.518 C66.6679986,29.0180025 66.2820025,29.4059986 65.79,29.682 C65.2979975,29.9580014 64.752003,30.096 64.152,30.096 C63.3279959,30.096 62.6800024,29.8360026 62.208,29.316 L62.208,32.328 L60.336,32.328 L60.336,23.544 L62.124,23.544 L62.124,24.288 C62.5880023,23.7279972 63.2639956,23.448 64.152,23.448 Z M63.828,28.56 C64.3080024,28.56 64.7019985,28.3980016 65.01,28.074 C65.3180015,27.7499984 65.472,27.3160027 65.472,26.772 C65.472,26.2279973 65.3180015,25.7940016 65.01,25.47 C64.7019985,25.1459984 64.3080024,24.984 63.828,24.984 C63.3479976,24.984 62.9540015,25.1459984 62.646,25.47 C62.3379985,25.7940016 62.184,26.2279973 62.184,26.772 C62.184,27.3160027 62.3379985,27.7499984 62.646,28.074 C62.9540015,28.3980016 63.3479976,28.56 63.828,28.56 Z M74.904,30.144 C74.2399967,30.144 73.5980031,30.0540009 72.978,29.874 C72.3579969,29.6939991 71.8600019,29.4600014 71.484,29.172 L72.144,27.708 C72.5040018,27.9720013 72.9319975,28.1839992 73.428,28.344 C73.9240025,28.5040008 74.4199975,28.584 74.916,28.584 C75.4680028,28.584 75.8759987,28.5020008 76.14,28.338 C76.4040013,28.1739992 76.536,27.9560014 76.536,27.684 C76.536,27.483999 76.4580008,27.3180007 76.302,27.186 C76.1459992,27.0539993 75.9460012,26.9480004 75.702,26.868 C75.4579988,26.7879996 75.1280021,26.7000005 74.712,26.604 C74.0719968,26.4519992 73.548002,26.3000008 73.14,26.148 C72.731998,25.9959992 72.3820015,25.7520017 72.09,25.416 C71.7979985,25.0799983 71.652,24.6320028 71.652,24.072 C71.652,23.5839976 71.7839987,23.142002 72.048,22.746 C72.3120013,22.349998 72.7099973,22.0360012 73.242,21.804 C73.7740027,21.5719988 74.4239962,21.456 75.192,21.456 C75.7280027,21.456 76.2519974,21.5199994 76.764,21.648 C77.2760026,21.7760006 77.7239981,21.9599988 78.108,22.2 L77.508,23.676 C76.7319961,23.2359978 75.9560039,23.016 75.18,23.016 C74.6359973,23.016 74.2340013,23.1039991 73.974,23.28 C73.7139987,23.4560009 73.584,23.6879986 73.584,23.976 C73.584,24.2640014 73.7339985,24.4779993 74.034,24.618 C74.3340015,24.7580007 74.7919969,24.8959993 75.408,25.032 C76.0480032,25.1840008 76.571998,25.3359992 76.98,25.488 C77.388002,25.6400008 77.7379985,25.8799984 78.03,26.208 C78.3220015,26.5360016 78.468,26.9799972 78.468,27.54 C78.468,28.0200024 78.3340013,28.457998 78.066,28.854 C77.7979987,29.250002 77.3960027,29.5639988 76.86,29.796 C76.3239973,30.0280012 75.6720038,30.144 74.904,30.144 Z M83.832,29.688 C83.6479991,29.8240007 83.4220013,29.9259997 83.154,29.994 C82.8859987,30.0620003 82.6040015,30.096 82.308,30.096 C81.5399962,30.096 80.9460021,29.900002 80.526,29.508 C80.1059979,29.115998 79.896,28.5400038 79.896,27.78 L79.896,25.128 L78.9,25.128 L78.9,23.688 L79.896,23.688 L79.896,22.116 L81.768,22.116 L81.768,23.688 L83.376,23.688 L83.376,25.128 L81.768,25.128 L81.768,27.756 C81.768,28.0280014 81.8379993,28.2379993 81.978,28.386 C82.1180007,28.5340007 82.3159987,28.608 82.572,28.608 C82.8680015,28.608 83.119999,28.5280008 83.328,28.368 L83.832,29.688 Z M87.96,30.096 C87.2799966,30.096 86.6700027,29.9540014 86.13,29.67 C85.5899973,29.3859986 85.1680015,28.9920025 84.864,28.488 C84.5599985,27.9839975 84.408,27.4120032 84.408,26.772 C84.408,26.1319968 84.5599985,25.5600025 84.864,25.056 C85.1680015,24.5519975 85.5899973,24.1580014 86.13,23.874 C86.6700027,23.5899986 87.2799966,23.448 87.96,23.448 C88.6400034,23.448 89.2479973,23.5899986 89.784,23.874 C90.3200027,24.1580014 90.7399985,24.5519975 91.044,25.056 C91.3480015,25.5600025 91.5,26.1319968 91.5,26.772 C91.5,27.4120032 91.3480015,27.9839975 91.044,28.488 C90.7399985,28.9920025 90.3200027,29.3859986 89.784,29.67 C89.2479973,29.9540014 88.6400034,30.096 87.96,30.096 Z M87.96,28.56 C88.4400024,28.56 88.8339985,28.3980016 89.142,28.074 C89.4500015,27.7499984 89.604,27.3160027 89.604,26.772 C89.604,26.2279973 89.4500015,25.7940016 89.142,25.47 C88.8339985,25.1459984 88.4400024,24.984 87.96,24.984 C87.4799976,24.984 87.0840016,25.1459984 86.772,25.47 C86.4599984,25.7940016 86.304,26.2279973 86.304,26.772 C86.304,27.3160027 86.4599984,27.7499984 86.772,28.074 C87.0840016,28.3980016 87.4799976,28.56 87.96,28.56 Z M94.536,24.396 C94.7600011,24.0839984 95.0619981,23.8480008 95.442,23.688 C95.8220019,23.5279992 96.2599975,23.448 96.756,23.448 L96.756,25.176 C96.547999,25.1599999 96.4080004,25.152 96.336,25.152 C95.7999973,25.152 95.3800015,25.3019985 95.076,25.602 C94.7719985,25.9020015 94.62,26.351997 94.62,26.952 L94.62,30 L92.748,30 L92.748,23.544 L94.536,23.544 L94.536,24.396 Z M104.244,26.796 C104.244,26.8200001 104.232,26.9879984 104.208,27.3 L99.324,27.3 C99.4120004,27.700002 99.6199984,28.0159988 99.948,28.248 C100.276002,28.4800012 100.683998,28.596 101.172,28.596 C101.508002,28.596 101.805999,28.5460005 102.066,28.446 C102.326001,28.3459995 102.567999,28.1880011 102.792,27.972 L103.788,29.052 C103.179997,29.7480035 102.292006,30.096 101.124,30.096 C100.395996,30.096 99.7520028,29.9540014 99.192,29.67 C98.6319972,29.3859986 98.2000015,28.9920025 97.896,28.488 C97.5919985,27.9839975 97.44,27.4120032 97.44,26.772 C97.44,26.1399968 97.5899985,25.5700025 97.89,25.062 C98.1900015,24.5539975 98.6019974,24.1580014 99.126,23.874 C99.6500026,23.5899986 100.235997,23.448 100.884,23.448 C101.516003,23.448 102.087997,23.5839986 102.6,23.856 C103.112003,24.1280014 103.513999,24.5179975 103.806,25.026 C104.098001,25.5340025 104.244,26.1239966 104.244,26.796 Z M100.896,24.864 C100.471998,24.864 100.116001,24.9839988 99.828,25.224 C99.5399986,25.4640012 99.3640003,25.7919979 99.3,26.208 L102.48,26.208 C102.416,25.799998 102.240001,25.4740012 101.952,25.23 C101.663999,24.9859988 101.312002,24.864 100.896,24.864 Z" id="App-Store" fill="#FFFFFF"></path>
                </g>
            </g>
        </g>
    </g>
</svg>