<svg width="16" height="15" viewBox="0 0 16 15" fill="none" xmlns="http://www.w3.org/2000/svg">
<path fill-rule="evenodd" clip-rule="evenodd" d="M1.86667 3.46667C0.733333 3.46667 0 2.73333 0 1.73333C0 0.733333 0.733333 0 1.86667 0C3 0 3.73333 0.733333 3.73333 1.73333C3.73333 2.73333 3.06667 3.46667 1.86667 3.46667ZM3.53333 14.6H0.466667V4.73333H3.53333V14.6ZM12.3333 14.6H15.8667V9C15.8667 5.93333 14.1333 4.53333 11.9333 4.53333C10.2 4.53333 9.06667 5.53333 8.86667 6.2V4.66667H5.4C5.46667 5.46667 5.4 14.5333 5.4 14.5333H8.86667V9.2C8.86667 8.93333 8.86667 8.6 8.93333 8.4C9.2 7.8 9.66667 7.2 10.6 7.2C11.8 7.2 12.3333 8.13333 12.3333 9.46667V14.6Z" fill="#99A5B2"/>
</svg>
