<svg width="18" height="16" viewBox="0 0 18 16" fill="none" xmlns="http://www.w3.org/2000/svg">
<path fill-rule="evenodd" clip-rule="evenodd" d="M17.2667 1.73333C16.6667 2.06667 15.9333 2.26667 15.2667 2.33333C16 1.86667 16.5333 1.13333 16.8 0.266667C16.1333 0.666667 15.4 1 14.5333 1.2C13.8667 0.466667 13 0 12 0C10.0667 0 8.46667 1.66667 8.46667 3.8C8.46667 4.06667 8.46667 4.4 8.53333 4.66667C5.6 4.53333 3 3 1.26667 0.733333C0.933333 1.26667 0.8 1.93333 0.8 2.66667C0.8 4 1.4 5.13333 2.33333 5.8C1.73333 5.8 1.2 5.6 0.733333 5.33333V5.4C0.733333 7.2 1.93333 8.73333 3.53333 9.13333C3.26667 9.2 2.93333 9.26667 2.6 9.26667C2.4 9.26667 2.13333 9.26667 1.93333 9.2C2.4 10.7333 3.66667 11.8 5.2 11.8C4 12.8 2.46667 13.4 0.866667 13.4C0.6 13.4 0.333333 13.4 0 13.3333C1.53333 14.4 3.4 15.0667 5.4 15.0667C11.8667 15.0667 15.4 9.33333 15.4 4.33333C15.4 4.2 15.4 4 15.4 3.86667C16.2 3.2 16.8 2.53333 17.2667 1.73333Z" fill="#99A5B2"/>
</svg>
